<svg width="16" height="16" viewBox="0 0 16 16" fill="none" xmlns="http://www.w3.org/2000/svg">
<g clip-path="url(#clip0_15_70)">
<path d="M13.6468 -0.44635C13.627 -0.414479 13.3856 -0.119494 12.939 0.283726M12.939 0.283726C12.9126 0.307546 12.8855 0.331743 12.8577 0.356287C12.7246 0.473707 12.632 0.51497 12.5868 0.531013C12.5675 0.537861 12.7054 0.439251 12.939 0.283726ZM12.939 0.283726C13.1089 0.170519 13.3296 0.0271556 13.5771 -0.127642C13.8766 -0.314908 14.1239 -0.326293 14.3688 -0.314535C14.4658 -0.309878 14.5048 -0.277751 14.5467 -0.241501C14.6367 -0.163677 14.8772 0.274588 15.1997 0.912214C15.4894 1.48473 15.4855 1.94616 15.479 2.14365M15.479 2.14365C15.4788 2.15192 15.4785 2.15972 15.4782 2.16705L15.4782 2.16923C15.4769 2.20524 15.4092 2.21258 15.3676 2.209C15.2027 2.19481 14.9377 1.81821 14.5708 1.31748C14.2778 0.917679 14.0022 0.610898 13.9315 0.454615C13.9075 0.401601 13.9532 0.386769 13.9996 0.416971C14.1216 0.496343 14.3204 0.818326 14.9208 1.53059C15.0756 1.71421 15.2726 1.92744 15.479 2.14365ZM15.479 2.14365C15.8382 2.51981 16.226 2.90496 16.4697 3.15883C16.8824 3.5887 16.9329 3.71322 16.9851 3.85704C17.02 3.95323 17.0172 4.06386 16.9969 4.17239C16.9827 4.24838 16.8411 4.22821 16.7415 4.22006C16.4828 4.19886 16.2424 3.8894 16.1431 3.73309C16.1229 3.69083 16.1092 3.65137 16.1002 3.61267C16.0913 3.57397 16.0874 3.53723 16.0835 3.40535M15.189 13.2601C15.1944 13.2601 15.1664 13.3055 14.8576 13.6601C14.5847 13.9736 14.0559 14.5409 13.7552 14.8604C13.7072 14.9115 13.6618 14.9577 13.619 14.9995M13.619 14.9995C13.2559 15.3535 13.0744 15.3897 12.9468 15.4073C12.8568 15.4198 12.7286 15.4168 12.9442 15.304C13.075 15.2355 13.3338 15.1247 13.619 14.9995ZM13.619 14.9995C13.8036 14.9183 13.9994 14.8312 14.1787 14.7455C14.6351 14.5274 14.9683 14.3259 15.2459 14.1296C15.7525 13.7713 16.1229 13.3412 16.3914 12.9879C16.5976 12.7165 16.6651 12.0016 16.7067 11.4269C16.7097 11.3864 16.7211 11.4295 16.7185 11.8227C16.716 12.2159 16.7012 12.958 16.6208 13.6155C16.5403 14.273 16.3946 14.8234 16.1759 15.45C15.9571 16.0766 15.6697 16.7627 15.5248 17.0865C15.3798 17.4102 15.386 17.3507 15.6081 16.7717C15.8302 16.1927 16.2679 15.0959 16.3285 14.7664C16.3891 14.4369 16.0593 14.9078 15.7345 15.2963C15.1377 16.0101 14.7478 16.2933 14.6939 16.2882C14.3163 16.2524 14.7429 15.1141 14.8238 14.6595C14.8416 14.5599 14.4102 14.9817 13.8907 15.5648C13.5304 15.9693 13.288 16.0525 12.9574 16.1256C12.682 16.1866 12.1787 16.2499 11.3865 16.2926C10.5943 16.3353 9.52599 16.3435 8.80568 16.3253C8.08537 16.307 7.74541 16.2619 7.34174 16.1814L6.87864 16.1798C6.42385 16.1782 5.51858 16.1749 4.64702 16.0974C3.77547 16.0199 2.96505 15.8681 2.45923 15.7499C1.77077 15.5891 1.55261 15.4444 1.4531 15.3783L1.45155 15.3773C1.02539 15.0945 0.602414 14.5441 0.451928 14.1636C0.218193 13.5726 0.118382 12.5758 0.0075798 12.664C-0.508896 13.075 -0.0415005 15.2284 -0.0427084 16.2293C-0.0439163 17.2303 -0.0374955 17.2688 -0.0244865 17.306C-0.0114776 17.3433 0.00792584 17.3781 0.0398312 17.3969C0.0717365 17.4157 0.115556 17.4174 0.158798 17.409C0.463272 17.3501 0.938441 16.8017 1.13136 16.5677C1.28301 16.3838 1.48659 16.3402 1.79383 16.3126C2.47769 16.251 2.73099 16.4071 3.01825 16.5658C3.07227 16.6023 3.10171 16.629 3.12437 16.6602C3.14703 16.6914 3.16202 16.7261 3.12706 16.8036M3.493 16.4254C3.48981 16.4254 3.48662 16.4254 5.73651 16.4344L5.78047 16.4346C8.04459 16.4437 12.5046 16.4616 14.8292 16.4729C15.4163 16.4757 15.8585 16.4781 16.1918 16.4801M16.1918 16.4801C17.1865 16.4862 17.2093 16.4892 17.2108 16.4919C17.2123 16.4945 17.1933 16.4968 16.1918 16.4801ZM16.1918 16.4801C15.8111 16.4738 15.2884 16.4647 14.5708 16.4518C11.9658 16.405 6.79381 16.3083 3.99303 16.241C1.19225 16.1737 0.919395 16.1388 0.694919 16.1021C0.0167508 15.9913 -0.312022 15.8503 -0.710148 15.7887C-0.789822 15.7764 -0.804789 15.7192 -0.814374 15.6626C-0.823959 15.606 -0.823959 15.5368 -0.830286 15.1477C-0.836613 14.7586 -0.849267 14.0517 -0.849365 13.6521C-0.849463 13.2526 -0.836621 13.1818 -0.750357 12.8041C-0.664092 12.4265 -0.504794 11.7441 -0.421043 11.3674C-0.337293 10.9907 -0.333919 10.9402 -0.324822 10.891C-0.315726 10.8418 -0.30101 10.7955 -0.305305 10.7574L-0.306664 9.0654C-0.308071 7.37597 -0.310881 3.99886 -0.301364 2.17144C-0.291846 0.343827 -0.269913 0.168033 -0.250693 0.0508747C-0.222538 -0.120753 -0.165334 -0.243175 -0.0973082 -0.362392C-0.000790715 -0.531542 0.250119 -0.544348 1.23524 -0.573414C2.11104 -0.599254 3.75124 -0.58978 4.8542 -0.546034C5.95716 -0.502288 6.47349 -0.409773 8.00103 -0.323238C9.52856 -0.236704 12.0517 -0.158952 13.4864 -0.0845222C14.9212 -0.0100921 15.1912 0.0586596 15.4392 0.143873C16.3344 0.451454 16.7843 0.916416 16.9338 1.11986C17.0058 1.21774 16.9946 1.40616 16.9603 1.66273C16.9132 2.01629 16.6776 2.49977 16.5274 2.98289C16.4277 3.30377 16.3687 3.53203 16.3264 3.93426C16.3061 4.12693 16.3212 4.44409 16.2751 5.62694C16.2291 6.80978 16.1369 8.84973 16.0734 9.9872C16 11.2993 15.9406 11.59 15.9284 11.7446C15.9252 11.7861 15.9075 11.7499 15.9479 12.2617C15.9884 12.7735 16.0823 13.8336 16.137 14.4091C16.2043 15.0432 16.2264 15.1542 16.2404 15.3075C16.2451 15.4101 16.2451 15.563 16.2451 15.7206M1.5428 2.0824C1.49767 2.11089 1.24013 2.29046 0.717994 2.88151C0.559285 3.06116 0.464852 3.16368 0.363135 3.32871C-0.0605241 4.0161 -0.139849 4.75704 -0.184668 4.90603C-0.198116 4.95073 -0.228081 4.91797 -0.259427 4.06517C-0.290774 3.21238 -0.331641 1.53676 -0.331909 0.539156C-0.332248 -0.727949 -0.234747 -1.04263 -0.200899 -1.11295C-0.132374 -1.25531 0.248659 -1.41867 0.728936 -1.65343C1.40032 -1.9816 2.07486 -1.83718 2.16107 -1.81308C2.44141 -1.73472 2.75108 -1.29894 2.957 -1.19784C3.14079 -1.10762 3.42276 -1.11678 3.60959 -1.00157C3.77232 -0.90122 3.84169 -0.629047 3.84563 -0.34549C3.84652 -0.2812 3.77915 -0.247749 3.70908 -0.220287C3.55147 -0.158521 3.16878 -0.136732 2.6747 -0.086792C2.29685 -0.0486001 1.9381 0.0721264 1.64594 0.203411M1.64594 0.203411C1.34936 0.336678 1.12139 0.480824 1.01171 0.56056C0.705146 0.783438 0.745135 1.52807 0.705728 1.70647C0.693962 1.75974 0.760146 1.74207 0.820275 1.7072C1.14023 1.52164 1.37101 1.18028 1.78761 0.960613C2.22216 0.731485 2.53692 0.645182 2.52781 0.566694C2.50329 0.355328 2.17371 0.290726 1.73811 0.217388C1.70645 0.212057 1.6757 0.207438 1.64594 0.203411ZM1.64594 0.203411C1.3488 0.163209 1.14907 0.181747 1.10246 0.134762C1.07559 0.107684 1.06969 0.06034 1.06754 0.0188484C1.0654 -0.0226432 1.07299 -0.0615895 1.09762 -0.0921974C1.28758 -0.181887 1.51251 -0.214905 1.62117 -0.220739C1.66979 -0.226574 1.70517 -0.238244 1.77401 -0.334343M-15 -19H31V29H-15V-19Z" stroke="white" stroke-width="2" stroke-linecap="round"/>
</g>
<defs>
<clipPath id="clip0_15_70">
<rect width="16" height="16" fill="white"/>
</clipPath>
</defs>
</svg>
